<svg width="130" height="46" viewBox="0 0 130 46" fill="none" xmlns="http://www.w3.org/2000/svg">
<g clip-path="url(#clip0_87_2003)">
<path fill-rule="evenodd" clip-rule="evenodd" d="M26.571 0C26.571 0 30.3762 0.109254 32.554 1.16133C34.9355 2.31254 37.9602 4.84157 38.9261 6.19713C39.8921 7.55269 42.6889 10.9436 43.2697 14.6239C43.6004 16.7361 42.5922 20.9181 43.3725 21.7881C44.0904 22.5974 44.3566 24.1735 44.1368 25.5654C43.7688 27.692 42.7579 29.6535 41.2411 31.1839C40.2772 32.151 40.0836 33.7008 39.3113 35.4448C38.539 37.1889 36.7947 40.1954 35.4477 41.209C34.1007 42.2226 29.2933 45.9737 26.6678 46C25.2563 46.0142 23.2196 45.5771 22.0299 43.7886C21.2233 42.5747 20.6707 40.6142 19.6101 39.7422C18.5494 38.8702 16.8495 38.9228 15.577 38.7306C12.7539 38.3259 14.0082 36.0518 11.544 36.505C9.32588 36.9097 7.6905 36.0053 8.11598 34.0771C8.51928 32.2562 10.7374 32.6609 12.7539 33.2679C13.5807 33.5167 16.4784 33.8991 17.1903 33.4702C18.1985 32.8632 17.9283 31.2446 16.3836 31.2446C14.839 31.2446 13.2823 32.5314 11.544 29.6261C11.0097 28.7318 10.7657 27.8052 7.71268 27.8052C6.09948 27.8052 4.88957 26.3889 5.29287 24.7703C5.54494 23.7587 6.74879 22.7471 7.71268 22.5448C8.65293 22.369 9.61866 22.3829 10.5535 22.5858C11.4883 22.7886 12.3735 23.1764 13.1572 23.7263C14.96 24.9929 16.4441 26.0915 20.6849 25.8568C22.0319 25.7819 23.9677 24.6955 26.4763 24.6955C28.9848 24.6955 31.3017 25.8932 32.8464 25.8568C35.9458 25.7819 38.5531 25.09 39.7953 23.5321C40.5837 22.5448 40.2328 21.4927 39.5755 20.7239C38.3656 19.3076 34.5342 18.818 32.2818 19.077C30.2995 19.3076 28.6158 21.4017 26.6698 21.4017C24.3529 21.4017 22.3767 18.8929 19.6121 18.903C16.668 18.903 15.2826 19.5625 13.1593 20.7239C12.1792 21.26 9.46099 20.9262 7.91635 20.7239C6.3717 20.5216 4.89159 19.0669 2.67343 19.5099C0.65693 19.9146 -0.552972 18.0937 0.253629 16.8797C1.37279 15.1964 3.07674 16.8797 6.10149 15.0588C8.26722 13.7579 9.39041 14.3325 10.3563 14.7189C11.3222 15.1054 11.8243 16.2647 13.5605 16.0705C14.1373 16.0057 14.7704 14.4519 12.9556 14.0472C11.2496 13.6628 10.5358 11.8217 11.544 10.2031C12.3143 8.9649 14.2159 8.71604 15.9541 9.1045C17.6924 9.49296 19.6222 9.49296 20.5921 9.1045C21.562 8.71604 22.4392 7.97959 21.558 7.16828C20.8321 6.50062 19.4346 7.16828 18.0836 7.55471C16.7325 7.94115 15.0951 7.19863 15.3814 5.75405C15.5831 4.74243 16.6518 4.54011 18.0029 4.33779C19.354 4.13547 19.844 3.14004 20.4227 3.5285C21.0014 3.91696 21.8343 5.75405 22.8425 4.94476C23.387 4.50774 22.6409 3.32618 22.8123 2.22959C22.9877 1.08849 24.8328 0 26.571 0Z" fill="white"/>
<path d="M3.88226 30.0308C4.66183 30.0308 5.29381 29.3967 5.29381 28.6145C5.29381 27.8323 4.66183 27.1982 3.88226 27.1982C3.10268 27.1982 2.4707 27.8323 2.4707 28.6145C2.4707 29.3967 3.10268 30.0308 3.88226 30.0308Z" fill="white"/>
<path d="M3.47796 14.8564C4.25754 14.8564 4.88951 14.2224 4.88951 13.4402C4.88951 12.658 4.25754 12.0239 3.47796 12.0239C2.69838 12.0239 2.06641 12.658 2.06641 13.4402C2.06641 14.2224 2.69838 14.8564 3.47796 14.8564Z" fill="white"/>
<path d="M73.3703 8.68164H70.1035V26.4253H73.3703V8.68164Z" fill="white"/>
<path fill-rule="evenodd" clip-rule="evenodd" d="M65.7097 26.4253V15.9046C65.7269 14.907 65.5416 13.9163 65.1651 12.9928C64.7887 12.0694 64.2288 11.2324 63.5197 10.5329C62.0558 9.04922 60.169 8.30737 57.8594 8.30737C55.5498 8.30737 53.6631 9.04922 52.1991 10.5329C51.4877 11.2331 50.926 12.0714 50.5484 12.9968C50.1709 13.9221 49.9853 14.915 50.0031 15.9147V26.4355H53.2699V16.6228C53.2699 15.0407 53.7061 13.7782 54.5786 12.8353C55.0015 12.3891 55.5104 12.0337 56.0744 11.7909C56.6384 11.5481 57.2457 11.4229 57.8594 11.4229C58.4731 11.4229 59.0805 11.5481 59.6445 11.7909C60.2085 12.0337 60.7174 12.3891 61.1403 12.8353C62.0127 13.7795 62.4497 15.042 62.451 16.6228V26.4253H65.7097Z" fill="white"/>
<path fill-rule="evenodd" clip-rule="evenodd" d="M85.5001 8.31543C83.1891 8.31543 81.3024 9.05728 79.8397 10.541C79.128 11.241 78.5661 12.0793 78.1881 13.0047C77.8102 13.93 77.6243 14.9229 77.6417 15.9227V26.4435H80.9085V16.6228C80.9085 15.0406 81.3454 13.7781 82.2192 12.8353C82.6419 12.3891 83.1507 12.0338 83.7145 11.791C84.2783 11.5482 84.8855 11.423 85.4991 11.423C86.1126 11.423 86.7198 11.5482 87.2836 11.791C87.8475 12.0338 88.3562 12.3891 88.7789 12.8353C89.6514 13.7795 90.0883 15.042 90.0896 16.6228V26.4253H93.3644V15.9045C93.3823 14.9046 93.1966 13.9116 92.8187 12.9862C92.4408 12.0608 91.8785 11.2225 91.1664 10.5228C89.7025 9.05121 87.8137 8.31543 85.5001 8.31543Z" fill="white"/>
<path fill-rule="evenodd" clip-rule="evenodd" d="M127.802 10.5329C126.338 9.04922 124.451 8.30737 122.142 8.30737C119.832 8.30737 117.946 9.04922 116.483 10.5329C115.771 11.2327 115.209 12.0709 114.831 12.9963C114.453 13.9217 114.267 14.9148 114.285 15.9147V26.4355H117.562V22.7532H126.743V26.4253H130.01V15.9046C130.025 14.9057 129.837 13.9143 129.457 12.9907C129.077 12.0672 128.514 11.2309 127.802 10.5329ZM126.733 19.6738H117.562V16.6228C117.562 15.0407 117.999 13.7782 118.873 12.8353C119.296 12.3891 119.804 12.0338 120.368 11.7911C120.932 11.5483 121.539 11.4231 122.153 11.4231C122.766 11.4231 123.373 11.5483 123.937 11.7911C124.501 12.0338 125.01 12.3891 125.433 12.8353C126.305 13.7795 126.742 15.042 126.743 16.6228L126.733 19.6738Z" fill="white"/>
<path fill-rule="evenodd" clip-rule="evenodd" d="M107.443 18.4862C107.443 20.0683 107.007 21.3302 106.134 22.2716C105.712 22.7184 105.203 23.0742 104.639 23.3174C104.075 23.5605 103.467 23.6859 102.854 23.6859C102.24 23.6859 101.632 23.5605 101.068 23.3174C100.504 23.0742 99.9953 22.7184 99.5727 22.2716C98.6989 21.3275 98.262 20.0656 98.262 18.4862H94.9973V19.1923C94.9795 20.1925 95.1653 21.1858 95.5432 22.1115C95.9212 23.0372 96.4833 23.8758 97.1952 24.5761C98.6592 26.0598 100.546 26.8016 102.856 26.8016C105.165 26.8016 107.052 26.0598 108.516 24.5761C109.226 23.8751 109.787 23.0362 110.164 22.1105C110.54 21.1848 110.725 20.1919 110.706 19.1923V8.68164H107.439L107.443 18.4862Z" fill="white"/>
<path fill-rule="evenodd" clip-rule="evenodd" d="M53.5831 30.2491C52.5528 30.2502 51.5651 30.6613 50.8366 31.3922C50.1081 32.1232 49.6983 33.1142 49.6973 34.1479L49.7134 41.2534H51.6472V37.2373C52.2097 37.7605 52.9492 38.0498 53.7162 38.0466C54.213 38.0554 54.706 37.9583 55.1627 37.762C55.6194 37.5657 56.0295 37.2745 56.3659 36.9076C56.7199 36.5426 56.9981 36.1107 57.1843 35.637C57.3706 35.1632 57.4611 34.6571 57.4507 34.1479C57.4597 33.6352 57.3644 33.126 57.1706 32.6515C56.9768 32.177 56.6885 31.7471 56.3235 31.3882C55.9692 31.0196 55.543 30.7283 55.0715 30.5323C54.6 30.3363 54.0933 30.2399 53.5831 30.2491ZM54.9704 35.6087C54.6947 35.8835 54.3439 36.0702 53.9625 36.1453C53.5811 36.2204 53.1861 36.1805 52.8273 36.0306C52.4684 35.8808 52.1619 35.6277 51.9462 35.3032C51.7305 34.9788 51.6154 34.5975 51.6154 34.2076C51.6154 33.8176 51.7305 33.4364 51.9462 33.1119C52.1619 32.7875 52.4684 32.5344 52.8273 32.3845C53.1861 32.2347 53.5811 32.1948 53.9625 32.2699C54.3439 32.345 54.6947 32.5317 54.9704 32.8065C55.1544 32.9902 55.3003 33.2085 55.3999 33.4489C55.4995 33.6894 55.5508 33.9472 55.5508 34.2076C55.5508 34.468 55.4995 34.7258 55.3999 34.9662C55.3003 35.2067 55.1544 35.425 54.9704 35.6087Z" fill="white"/>
<path fill-rule="evenodd" clip-rule="evenodd" d="M67.0042 30.2491C66.4939 30.2399 65.9872 30.3363 65.5157 30.5323C65.0442 30.7283 64.618 31.0196 64.2637 31.3882C63.5416 32.1224 63.1367 33.1124 63.1367 34.1438C63.1367 35.1753 63.5416 36.1653 64.2637 36.8995C64.6144 37.269 65.0374 37.5616 65.5062 37.7591C65.9751 37.9565 66.4796 38.0544 66.988 38.0466C68.0186 38.0488 69.0078 37.6401 69.7381 36.9104C70.4683 36.1808 70.8798 35.19 70.8819 34.156C70.884 33.122 70.4767 32.1295 69.7495 31.3968C69.0223 30.6641 68.0347 30.2513 67.0042 30.2491Z" fill="white"/>
<path fill-rule="evenodd" clip-rule="evenodd" d="M89.4619 30.249C88.9521 30.248 88.4471 30.3482 87.976 30.5439C87.505 30.7397 87.0773 31.0271 86.7175 31.3895C86.3578 31.752 86.0731 32.1823 85.88 32.6558C85.6868 33.1292 85.589 33.6363 85.5922 34.1478C85.5846 34.6591 85.6806 35.1667 85.8743 35.6397C86.0681 36.1127 86.3556 36.5412 86.7194 36.8994C87.0701 37.2688 87.4932 37.5614 87.962 37.7588C88.4309 37.9562 88.9354 38.0542 89.4438 38.0465C90.4743 38.0489 91.4637 37.6405 92.1941 36.9111C92.9245 36.1816 93.3362 35.1909 93.3386 34.1569C93.341 33.1229 92.934 32.1303 92.2069 31.3974C91.4799 30.6645 90.4925 30.2514 89.4619 30.249Z" fill="white"/>
<path fill-rule="evenodd" clip-rule="evenodd" d="M80.9668 30.2674C80.4829 30.2505 80.0007 30.3331 79.5499 30.5102C79.0991 30.6873 78.6891 30.9552 78.3454 31.2973C77.6839 30.6094 76.8101 30.2661 75.7239 30.2674C75.2645 30.2498 74.8061 30.3242 74.3757 30.4864C73.9453 30.6487 73.5515 30.8954 73.2174 31.2123C72.9054 31.5027 72.6575 31.8554 72.4897 32.2478C72.322 32.6402 72.2381 33.0635 72.2434 33.4904V37.8444H74.1611V33.7595C74.1288 33.2706 74.2719 32.7862 74.5644 32.3939C74.7012 32.2318 74.8732 32.1033 75.0672 32.0185C75.2613 31.9336 75.4721 31.8945 75.6836 31.9042C75.9063 31.8979 76.1279 31.9389 76.3336 32.0247C76.5394 32.1105 76.7247 32.2391 76.8773 32.4019C77.2068 32.7744 77.3763 33.2623 77.3492 33.7595V37.8444H79.283V33.7595C79.2555 33.264 79.4211 32.7772 79.7448 32.4019C79.8954 32.2386 80.0792 32.1097 80.2838 32.0238C80.4883 31.938 80.7089 31.8972 80.9305 31.9042C81.143 31.8954 81.3548 31.9348 81.55 32.0196C81.7452 32.1044 81.9188 32.2323 82.0577 32.3939C82.3592 32.7824 82.509 33.268 82.4792 33.7595V37.8444H84.3969V33.4904C84.4048 33.0642 84.3245 32.6409 84.161 32.2474C83.9976 31.8538 83.7545 31.4986 83.4471 31.2042C82.8139 30.5783 81.9872 30.2661 80.9668 30.2674Z" fill="white"/>
<path fill-rule="evenodd" clip-rule="evenodd" d="M58.5611 33.6766V37.8444H60.4788V33.9113C60.4788 33.3387 60.624 32.8997 60.9164 32.6043C61.0714 32.4525 61.2561 32.3344 61.4587 32.2575C61.6613 32.1805 61.8776 32.1464 62.094 32.1571V30.4192C61.0266 30.4192 60.1709 30.7341 59.527 31.364C59.2146 31.661 58.9674 32.02 58.8011 32.4182C58.6348 32.8163 58.553 33.2449 58.5611 33.6766Z" fill="white"/>
<path d="M6.10007 12.4288C6.43417 12.4288 6.70502 12.157 6.70502 11.8218C6.70502 11.4866 6.43417 11.2148 6.10007 11.2148C5.76596 11.2148 5.49512 11.4866 5.49512 11.8218C5.49512 12.157 5.76596 12.4288 6.10007 12.4288Z" fill="white"/>
<path d="M17.4934 3.32432C17.9945 3.32432 18.4008 2.9167 18.4008 2.41387C18.4008 1.91104 17.9945 1.50342 17.4934 1.50342C16.9922 1.50342 16.5859 1.91104 16.5859 2.41387C16.5859 2.9167 16.9922 3.32432 17.4934 3.32432Z" fill="white"/>
<path d="M33.1215 23.5565C34.5692 23.5565 35.7429 23.1489 35.7429 22.646C35.7429 22.1432 34.5692 21.7356 33.1215 21.7356C31.6737 21.7356 30.5 22.1432 30.5 22.646C30.5 23.1489 31.6737 23.5565 33.1215 23.5565Z" fill="white"/>
<path d="M19.8129 23.5565C21.2607 23.5565 22.4343 23.1489 22.4343 22.646C22.4343 22.1432 21.2607 21.7356 19.8129 21.7356C18.3651 21.7356 17.1914 22.1432 17.1914 22.646C17.1914 23.1489 18.3651 23.5565 19.8129 23.5565Z" fill="white"/>
</g>
<defs>
<clipPath id="clip0_87_2003">
<rect width="130" height="46" fill="white"/>
</clipPath>
</defs>
</svg>
